<svg xmlns="http://www.w3.org/2000/svg" xmlns:xlink="http://www.w3.org/1999/xlink" data-v-1e121de1="" version="1.0" width="230.53" height="58.52" viewBox="0 0 236 62" preserveAspectRatio="xMidYMid meet" color-interpolation-filters="sRGB" class="el-tooltip" style="margin: auto;" transform="scale(1)">
	<g data-v-1e121de1="" fill="#3F51B5" class="icon-text-wrapper icon-svg-group iconsvg">
		<g class="iconsvg-imagesvg font-path">
			<rect fill="#3F51B5" fill-opacity="0" stroke-width="2" x="0" y="0" width="62" height="62" class="image-rect" />
			<svg viewBox="1 1 60 60" x="0" y="0" width="62" height="62" filtersec="colorsf2865991309" class="image-svg-svg initial">
				<g mask="url(#774a7b94-f932-4dc0-a9cf-f34dd5f174bf)">
					<svg xmlns="http://www.w3.org/2000/svg" xmlns:xlink="http://www.w3.org/1999/xlink" xml:space="preserve" version="1.1" style="shape-rendering:geometricPrecision;text-rendering:geometricPrecision;image-rendering:optimizeQuality;" viewBox="0 0 249 249" x="1" y="1" fill-rule="evenodd" clip-rule="evenodd" width="60" height="60" filter="url(#colors8472330095)">
						<defs />
						<g>
							<path class="fil0" d="M125 0c68,0 124,56 124,125 0,68 -56,124 -124,124 -69,0 -125,-56 -125,-124 0,-69 56,-125 125,-125z" />
						</g>
					</svg>
					<g fill="#3F51B5" transform="translate(14.864999999999998,11.189999999999998)">
						<g transform="translate(0, 0)">
							<g>
								<path d="M6.16-10.92L16.87-10.92L20.93-41.16L18.90-43.82L34.37-43.82L29.68-8.89Q29.12-6.86 27.72-5.53Q26.32-4.20 24.29-4.20L24.29-4.20L2.10-4.20L3.43-13.58L6.16-10.92Z" transform="translate(-2.1, 43.82000000000001)" />
							</g>
						</g>
					</g>
				</g>
				<mask id="774a7b94-f932-4dc0-a9cf-f34dd5f174bf">
					<g>
						<svg xmlns="http://www.w3.org/2000/svg" xmlns:xlink="http://www.w3.org/1999/xlink" xml:space="preserve" version="1.1" viewBox="0 0 249 249" x="1" y="1" fill-rule="evenodd" clip-rule="evenodd" width="60" height="60" stroke="#ffffff" fill="#ffffff">
							<defs />
							<g>
								<path class="fil0" d="M125 0c68,0 124,56 124,125 0,68 -56,124 -124,124 -69,0 -125,-56 -125,-124 0,-69 56,-125 125,-125z" />
							</g>
						</svg>
						<g transform="translate(14.864999999999998,11.189999999999998)" fill="#000000">
							<g transform="translate(0, 0)">
								<g>
									<path d="M6.16-10.92L16.87-10.92L20.93-41.16L18.90-43.82L34.37-43.82L29.68-8.89Q29.12-6.86 27.72-5.53Q26.32-4.20 24.29-4.20L24.29-4.20L2.10-4.20L3.43-13.58L6.16-10.92Z" transform="translate(-2.1, 43.82000000000001)" />
								</g>
							</g>
						</g>
					</g>
				</mask>
			</svg>
			<defs>
				<filter id="colors8472330095">
					<feColorMatrix type="matrix" values="0 0 0 0 0.24609375  0 0 0 0 0.31640625  0 0 0 0 0.70703125  0 0 0 1 0" class="icon-fecolormatrix" />
				</filter>
				<filter id="colorsf2865991309">
					<feColorMatrix type="matrix" values="0 0 0 0 0.99609375  0 0 0 0 0.99609375  0 0 0 0 0.99609375  0 0 0 1 0" class="icon-fecolormatrix" />
				</filter>
				<filter id="colorsb5827711841">
					<feColorMatrix type="matrix" values="0 0 0 0 0  0 0 0 0 0  0 0 0 0 0  0 0 0 1 0" class="icon-fecolormatrix" />
				</filter>
			</defs>
		</g>
		<g transform="translate(67,5.434999465942383)" mask="url(#d3a3db46-5173-4dd7-bddd-cf3b78b1aad4)">
			<g fill-rule="" class="tp-name iconsvg-namesvg" transform="translate(15.309989929199219,0)">
				<g>
					<path d="M19.64-17.05L20.46-21.23L14.85-21.23L14.36-19.14L3.79-19.14L5.39-26.51L31.24-26.51L28.05-5.94L30.20-3.30L5.39-3.30Q3.79-3.30 3.00-4.34Q2.20-5.39 2.20-6.99L2.20-6.99L3.79-17.05L19.64-17.05ZM18.59-11.77L13.31-11.77L12.76-8.58L18.04-8.58L18.59-11.77ZM66-26.51L65.45-21.23L48.56-21.23L46.48-8.58L61.22-8.58L63.86-10.67L62.81-3.30L35.37-3.30L39.05-26.51L66-26.51ZM90.20-18.92L89.27-13.31L70.51-13.31L71.39-18.92L90.20-18.92ZM96.47-26.51L108.63-26.51L106.21-10.01L112.81-10.67L114.95-24.97L113.36-26.51L125.51-26.51L122.32-3.30L111.76-3.30L112.09-5.39L94.88-3.30L98.07-24.97L96.47-26.51ZM144.71-34.43L143.66-28.11L133.59-28.11L134.15-34.43L144.71-34.43ZM131.50-26.51L143.66-26.51L140.47-3.30L129.91-3.30L133.10-24.97L131.50-26.51Z" transform="translate(-2.2, 34.43)" />
				</g> <!----> <!----> <!----> <!----> <!----> <!----> <!---->
			</g>
			<g fill-rule="" hollow-target="t-name" class="tp-slogan iconsvg-slogansvg" fill="#3F51B5" transform="translate(0,36.130001068115234)">
				<!---->
				<!---->
				<g mask="url(#60383fb3-7dfc-4c24-8d06-9d6820e2f328)">
					<g>
						<rect stroke-width="2" class="i-icon-bg" x="0" y="0" width="173.12998962402344" height="15" fill-opacity="1" /> <!----> <!---->
					</g>
					<g transform="translate(5,2)">
						<g fill="#fff">
							<path d="M10.73-9.17L10.73-0.25Q10.73 1.01 9.47 1.01L9.47 1.01L7.56 1.01L7.56 0.23L8.99 0.23Q9.41 0.23 9.41-0.19L9.41-0.19L9.41-2.17L6.80-2.17L6.80 0.77Q6.80 0.84 6.75 0.89Q6.70 0.95 6.62 0.95L6.62 0.95L5.48 0.95L5.48-2.17L2.69-2.17Q2.51-0.72 1.93 0.07Q1.34 0.86 0.55 1.34L0.55 1.34L0.55 0.56Q1.02-0.10 1.23-0.95Q1.44-1.81 1.44-3.34L1.44-3.34L1.44-9.17L10.73-9.17ZM5.48-8.39L2.76-8.39L2.76-5.87L5.48-5.87L5.48-8.39ZM9.41-5.87L9.41-8.39L6.80-8.39L6.80-5.87L9.41-5.87ZM2.75-2.95L5.48-2.95L5.48-5.09L2.76-5.09L2.76-3.31Q2.76-3.07 2.75-2.95L2.75-2.95ZM6.80-2.95L9.41-2.95L9.41-5.09L6.80-5.09L6.80-2.95ZM20.77-5.17L25.30-5.17L25.30-4.57Q25.30-4.50 25.25-4.45Q25.20-4.39 25.12-4.39L25.12-4.39L20.77-4.39L20.77-0.40Q20.77 0.86 19.51 0.86L19.51 0.86L17.04 0.86L17.04 0.08L19.03 0.08Q19.45 0.08 19.45-0.34L19.45-0.34L19.45-4.39L14.55-4.39L14.55-5.17L19.45-5.17L19.45-8.10L15.45-8.10L15.45-8.88L24.43-8.88L24.43-8.28Q24.43-8.21 24.37-8.15Q24.32-8.10 24.25-8.10L24.25-8.10L20.77-8.10L20.77-5.17ZM38.99-7.90L38.99-0.26Q38.99 1.00 37.73 1.00L37.73 1.00L35.13 1.00L35.13 0.22L37.25 0.22Q37.67 0.22 37.67-0.20L37.67-0.20L37.67-7.12L34.50-7.12Q34.10-6.59 33.60-6.16Q33.10-5.74 32.58-5.47L32.58-5.47L32.58-6.25Q33.16-6.78 33.64-7.71Q34.12-8.64 34.28-9.62L34.28-9.62L35.57-9.62Q35.52-8.80 35.02-7.90L35.02-7.90L38.99-7.90ZM32.75-3.18Q32.00-3.58 31.37-4.48L31.37-4.48L31.37 1.07Q31.37 1.14 31.32 1.19Q31.26 1.25 31.19 1.25L31.19 1.25L30.05 1.25L30.05-3.58Q29.73-3 29.33-2.58Q28.92-2.16 28.43-1.79L28.43-1.79L28.43-2.57Q28.90-3.18 29.22-4.04Q29.54-4.91 29.69-6.47L29.69-6.47L28.61-6.47L28.61-7.25L30.05-7.25L30.05-9.58L31.37-9.58L31.37-7.25L32.57-7.25L32.57-6.65Q32.57-6.58 32.52-6.52Q32.46-6.47 32.39-6.47L32.39-6.47L31.60-6.47Q31.79-5.62 32.09-5.03Q32.38-4.44 32.75-3.96L32.75-3.96L32.75-3.18ZM36.59-1.58Q36.41-1.52 36.22-1.50L36.22-1.50L32.50-1.00L32.50-2.02L32.80-2.04Q33.27-2.68 33.63-3.84Q34.00-5.00 34.17-6.34L34.17-6.34L35.58-6.34Q35.28-4.91 34.79-3.86Q34.30-2.81 33.78-2.11L33.78-2.11L35.92-2.28Q36.06-2.28 36.18-2.32L36.18-2.32Q35.78-3.20 35.40-4.85L35.40-4.85L36.74-4.85Q36.74-4.04 36.95-3.07Q37.16-2.10 37.50-1.60L37.50-1.60L37.49-0.82Q37.01-0.98 36.59-1.58L36.59-1.58ZM48.42-5.36L48.42-6.24L45.82-6.24L45.82-7.02L48.42-7.02L48.42-8.02L46.31-8.02L46.31-8.80L48.42-8.80L48.42-9.66L49.74-9.66L49.74-8.80L52.42-8.80L52.42-7.02L53.17-7.02L53.17-6.42Q53.17-6.35 53.12-6.29Q53.06-6.24 52.99-6.24L52.99-6.24L52.42-6.24L52.42-5.84Q52.42-5.23 52.00-4.91Q51.59-4.58 50.93-4.58L50.93-4.58L49.74-4.58L49.74-3.71L52.43-3.71L52.43-3.11Q52.43-3.04 52.37-2.98Q52.32-2.93 52.25-2.93L52.25-2.93L49.74-2.93L49.74-2.09L52.90-2.09L52.90-1.49Q52.90-1.42 52.84-1.36Q52.79-1.31 52.72-1.31L52.72-1.31L49.74-1.31L49.74-0.41Q49.74-0.34 49.69-0.28Q49.63-0.23 49.56-0.23L49.56-0.23L48.42-0.23L48.42-1.31L45.62-1.31L45.62-2.09L48.42-2.09L48.42-2.93L46.22-2.93L46.22-3.71L48.42-3.71L48.42-4.58L46.30-4.58L46.30-5.36L48.42-5.36ZM47.00-0.02L53.20-0.02L53.08 0.58Q53.03 0.76 52.90 0.76L52.90 0.76L47.06 0.76Q45.24 0.76 44.08-0.31L44.08-0.31Q43.42 0.53 42.37 1.13L42.37 1.13L42.37 0.35Q43.04-0.19 43.46-1.06L43.46-1.06Q42.73-2.16 42.54-3.90L42.54-3.90L43.37-3.86Q43.48-2.99 43.88-2.16L43.88-2.16Q44.21-3.28 44.27-4.63L44.27-4.63L42.71-4.63L42.71-5.41L43.12-5.41Q43.55-5.96 43.90-6.67Q44.24-7.38 44.33-8.05L44.33-8.05L42.49-8.05L42.49-8.83L45.79-8.83L45.79-8.05Q45.59-7.33 45.14-6.62Q44.70-5.92 44.23-5.41L44.23-5.41L45.71-5.41L45.71-4.63Q45.43-2.53 44.62-1.10L44.62-1.10Q45.64-0.02 47.00-0.02L47.00-0.02ZM49.74-8.02L49.74-7.02L51.10-7.02L51.10-8.02L49.74-8.02ZM51.10-5.78L51.10-6.24L49.74-6.24L49.74-5.36L50.68-5.36Q51.10-5.36 51.10-5.78L51.10-5.78ZM66.49-9.17L66.49-0.25Q66.49 1.01 65.23 1.01L65.23 1.01L63.32 1.01L63.32 0.23L64.75 0.23Q65.17 0.23 65.17-0.19L65.17-0.19L65.17-2.17L62.56-2.17L62.56 0.77Q62.56 0.84 62.51 0.89Q62.46 0.95 62.38 0.95L62.38 0.95L61.24 0.95L61.24-2.17L58.45-2.17Q58.27-0.72 57.69 0.07Q57.10 0.86 56.31 1.34L56.31 1.34L56.31 0.56Q56.78-0.10 56.99-0.95Q57.20-1.81 57.20-3.34L57.20-3.34L57.20-9.17L66.49-9.17ZM61.24-8.39L58.52-8.39L58.52-5.87L61.24-5.87L61.24-8.39ZM65.17-5.87L65.17-8.39L62.56-8.39L62.56-5.87L65.17-5.87ZM58.51-2.95L61.24-2.95L61.24-5.09L58.52-5.09L58.52-3.31Q58.52-3.07 58.51-2.95L58.51-2.95ZM62.56-2.95L65.17-2.95L65.17-5.09L62.56-5.09L62.56-2.95ZM80.40-8.04L80.40-4.87Q80.40-3.61 79.14-3.61L79.14-3.61L72.68-3.61Q72.52-1.62 71.90-0.50Q71.28 0.61 70.25 1.27L70.25 1.27L70.25 0.37Q70.82-0.34 71.12-1.76Q71.42-3.19 71.42-5.06L71.42-5.06L71.42-8.04L75.90-8.04Q75.72-8.41 75.51-8.74Q75.29-9.07 74.78-9.56L74.78-9.56L76.22-9.56Q76.50-9.19 76.64-8.94Q76.78-8.69 76.94-8.30L76.94-8.30L77.04-8.04L80.40-8.04ZM78.66-4.39Q79.08-4.39 79.08-4.81L79.08-4.81L79.08-7.26L72.74-7.26L72.74-5.04Q72.74-4.60 72.72-4.39L72.72-4.39L78.66-4.39ZM95.10-2.14L95.10-1.36Q94.62-1.42 93.88-1.66Q93.13-1.91 92.37-2.28L92.37-2.28L92.37 1.07Q92.37 1.14 92.31 1.19Q92.26 1.25 92.19 1.25L92.19 1.25L91.11 1.25L91.11-2.80L91.39-2.80Q90.30-3.43 89.64-4.14L89.64-4.14Q89.02-3.48 87.83-2.80L87.83-2.80L88.23-2.80L88.23-2.22Q88.23-1.25 87.77-0.52Q87.31 0.20 86.59 0.64Q85.87 1.07 85.03 1.25L85.03 1.25L85.03 0.35Q85.96 0 86.43-0.61Q86.89-1.21 86.91-2.32L86.91-2.32Q86.14-1.96 85.41-1.70Q84.69-1.44 84.19-1.36L84.19-1.36L84.19-2.14Q87.17-3.04 88.29-4.45L88.29-4.45L85.07-4.45L85.07-9.10L94.18-9.10L94.18-5.71Q94.18-4.45 92.92-4.45L92.92-4.45L90.99-4.45Q91.48-3.92 92.23-3.43Q92.98-2.93 93.76-2.59Q94.54-2.24 95.10-2.14L95.10-2.14ZM86.39-8.32L86.39-7.14L89.01-7.14L89.01-8.32L86.39-8.32ZM92.86-8.32L90.33-8.32L90.33-7.14L92.86-7.14L92.86-8.32ZM89.01-6.36L86.39-6.36L86.39-5.23L89.01-5.23L89.01-6.36ZM92.44-5.23Q92.86-5.23 92.86-5.65L92.86-5.65L92.86-6.36L90.33-6.36L90.33-5.23L92.44-5.23ZM98.10-9.16L109.05-9.16L109.05-8.56Q109.05-8.48 109.00-8.43Q108.95-8.38 108.87-8.38L108.87-8.38L104.37-8.38Q103.99-7.39 103.55-6.78L103.55-6.78L108.38-6.78L108.38-0.38Q108.38 0.88 107.12 0.88L107.12 0.88L105.92 0.88L105.92 0.89L104.60 0.89L104.60 0.88L102.60 0.88L102.60 0.89L101.28 0.89L101.28 0.88L98.82 0.88L98.82-6.78L102.49-6.78Q102.69-7.13 102.81-7.55Q102.93-7.98 102.97-8.38L102.97-8.38L98.10-8.38L98.10-9.16ZM100.14 0.10L101.28 0.10L101.28-6L100.14-6L100.14 0.10ZM104.60-4.56L104.60-6L102.60-6L102.60-4.56L104.60-4.56ZM106.64 0.10Q107.06 0.10 107.06-0.32L107.06-0.32L107.06-6L105.92-6L105.92 0.10L106.64 0.10ZM102.60-3.78L102.60-2.24L104.60-2.24L104.60-3.78L102.60-3.78ZM102.60 0.10L104.60 0.10L104.60-1.46L102.60-1.46L102.60 0.10ZM117.03-7.93L117.03-0.10Q117.03 1.16 115.77 1.16L115.77 1.16L112.53 1.16L112.53-7.93L113.79-7.93Q114.01-8.30 114.20-8.77Q114.39-9.23 114.50-9.66L114.50-9.66L115.94-9.66Q115.43-8.56 114.92-7.93L114.92-7.93L117.03-7.93ZM119.55-8.03L122.51-8.03L122.51-0.18Q122.51 1.08 121.25 1.08L121.25 1.08L118.84 1.08L118.84 0.30L120.77 0.30Q121.19 0.30 121.19-0.12L121.19-0.12L121.19-7.25L119.17-7.25Q118.46-6.01 117.26-5.32L117.26-5.32L117.26-6.16Q117.88-6.84 118.16-7.65Q118.43-8.46 118.65-9.66L118.65-9.66L119.97-9.66Q119.89-8.83 119.55-8.03L119.55-8.03ZM115.71-3.84L115.71-7.15L113.85-7.15L113.85-3.84L115.71-3.84ZM121.09-2.09L120.07-2.09Q119.99-2.23 119.53-2.85Q119.06-3.47 118.51-4.14Q117.95-4.81 117.55-5.20L117.55-5.20L119.11-5.20Q119.53-4.75 120.19-3.68Q120.86-2.60 121.09-2.09L121.09-2.09ZM115.29 0.38Q115.71 0.38 115.71-0.04L115.71-0.04L115.71-3.06L113.85-3.06L113.85 0.38L115.29 0.38ZM137.37-3.60Q137.37-2.27 136.94-1.61Q136.50-0.95 135.32-0.95L135.32-0.95Q134.13-0.95 133.74-1.63Q133.34-2.32 133.34-3.60L133.34-3.60L133.34-8.40L132.18-8.40L132.18-3.60Q132.18-1.82 132.88-0.91Q133.58 0 135.32 0L135.32 0Q137.01 0 137.72-1.00Q138.42-2.00 138.42-3.60L138.42-3.60L138.42-8.40L137.37-8.40L137.37-3.60ZM143.60-8.40L142.41-8.40L142.41 0L143.42 0Q143.49 0 143.54-0.05Q143.60-0.11 143.60-0.18L143.60-0.18L143.60-8.40ZM155.13-7.64L155.13-5.04Q155.13-3.14 154.88-1.99Q154.63-0.84 154.14-0.14Q153.65 0.55 152.78 1.22L152.78 1.22L152.78 0.44Q153.42-0.44 153.62-1.69Q153.81-2.94 153.81-5.06L153.81-5.06L153.81-8.42L158.43-8.42Q157.95-9.10 157.47-9.65L157.47-9.65L158.91-9.65Q159.27-9.18 159.66-8.42L159.66-8.42L163.56-8.42L163.56-7.82Q163.56-7.75 163.50-7.70Q163.45-7.64 163.38-7.64L163.38-7.64L155.13-7.64ZM160.25-1.36L163.68-1.36L163.68-0.76Q163.68-0.68 163.62-0.63Q163.57-0.58 163.50-0.58L163.50-0.58L160.25-0.58L160.25 1.07Q160.25 1.14 160.19 1.19Q160.14 1.25 160.07 1.25L160.07 1.25L158.93 1.25L158.93-0.58L155.12-0.58L155.12-1.36L158.93-1.36L158.93-2.70L156.01-2.70L156.01-3.48L156.32-3.48Q156.93-4.22 157.32-5.38L157.32-5.38L155.29-5.38L155.29-6.16L157.56-6.16Q157.70-6.77 157.81-7.34L157.81-7.34L159.13-7.34Q158.99-6.61 158.87-6.16L158.87-6.16L163.19-6.16L163.19-5.56Q163.19-5.48 163.13-5.43Q163.08-5.38 163.01-5.38L163.01-5.38L158.63-5.38Q158.42-4.85 158.16-4.40Q157.89-3.96 157.50-3.48L157.50-3.48L158.93-3.48L158.93-4.93L160.25-4.93L160.25-3.48L162.85-3.48L162.85-2.88Q162.85-2.81 162.80-2.75Q162.74-2.70 162.67-2.70L162.67-2.70L160.25-2.70L160.25-1.36Z" transform="translate(-0.552, 9.66)" />
						</g>
					</g>
				</g>
			</g>
		</g>
	</g>
</svg>